112 1001
Helmig, Detlev
US06L, National Oceanic and Atmospheric Administration, NOAA/ESRL/GMD, "Earth System Research Laboratory, Global Monitoring Division", 325 Broadway, , CO 80305-3, Boulder, U.S.A.
Mund, John
GAW-WDCRG NOAA-GGGRN
1 1
2006 01 01 2021 08 31
0
days from file reference point
49
1 1 1 1 1 1 1 1 1 1 1 1 1 1 1 1 1 1 1 1 1 1 1 1 1 1 1 1 1 1 1 1 1 1 1 1 1 1 1 1 1 1 1 1 1 1 1 1 1
9999.999999 99999.999 9.999999 999999.99 9.999999 99 9.999 9999.999 9.999 9999.99 9.999 99999.999 9.999999 99 9.999 999.999 9.999 99999.999 9.999999 99 9.999 9999.999 9.999 99999.999 9.999999 99999.99 9.999999 99 9.999 999.999 9.999 9999.99 9.999 99999.999 9.999999 99999.99 9.999999 99 9.999 999.999 9.999 9999.99 9.999 9999.999 9.999999 99 9.999 999.999 9.999
end_time of measurement, days from the file reference point
2-methylbutane, pmol/mol, Statistics=arithmetic mean
numflag 2-methylbutane, no unit, Statistics=arithmetic mean
2-methylbutane, ng/m3, Statistics=arithmetic mean, Volume std. temperature=273.15 K, Volume std. pressure=1013.25 hPa, "Comment=Data converted on export from EBAS from 'pmol/mol' to 'ng/m3' at 273.15 K, 1013.25 hPa, conversion factor 3.2190."
numflag 2-methylbutane, no unit, Statistics=arithmetic mean, Volume std. temperature=273.15 K, Volume std. pressure=1013.25 hPa, "Comment=Data converted on export from EBAS from 'pmol/mol' to 'ng/m3' at 273.15 K, 1013.25 hPa, conversion factor 3.2190."
2-methylbutane, no unit, Statistics=sample count
numflag 2-methylbutane, no unit, Statistics=sample count
2-methylbutane, pmol/mol, Statistics=stddev
numflag 2-methylbutane, no unit, Statistics=stddev
2-methylbutane, ng/m3, Statistics=stddev, Volume std. temperature=273.15 K, Volume std. pressure=1013.25 hPa, "Comment=Data converted on export from EBAS from 'pmol/mol' to 'ng/m3' at 273.15 K, 1013.25 hPa, conversion factor 3.2190."
numflag 2-methylbutane, no unit, Statistics=stddev, Volume std. temperature=273.15 K, Volume std. pressure=1013.25 hPa, "Comment=Data converted on export from EBAS from 'pmol/mol' to 'ng/m3' at 273.15 K, 1013.25 hPa, conversion factor 3.2190."
2-methylpropane, pmol/mol, Statistics=arithmetic mean
numflag 2-methylpropane, no unit, Statistics=arithmetic mean
2-methylpropane, no unit, Statistics=sample count
numflag 2-methylpropane, no unit, Statistics=sample count
2-methylpropane, pmol/mol, Statistics=stddev
numflag 2-methylpropane, no unit, Statistics=stddev
ethane, pmol/mol, Statistics=arithmetic mean
numflag ethane, no unit, Statistics=arithmetic mean
ethane, no unit, Statistics=sample count
numflag ethane, no unit, Statistics=sample count
ethane, pmol/mol, Statistics=stddev
numflag ethane, no unit, Statistics=stddev
n-butane, pmol/mol, Statistics=arithmetic mean
numflag n-butane, no unit, Statistics=arithmetic mean
n-butane, ng/m3, Statistics=arithmetic mean, Volume std. temperature=273.15 K, Volume std. pressure=1013.25 hPa, "Comment=Data converted on export from EBAS from 'pmol/mol' to 'ng/m3' at 273.15 K, 1013.25 hPa, conversion factor 2.5932."
numflag n-butane, no unit, Statistics=arithmetic mean, Volume std. temperature=273.15 K, Volume std. pressure=1013.25 hPa, "Comment=Data converted on export from EBAS from 'pmol/mol' to 'ng/m3' at 273.15 K, 1013.25 hPa, conversion factor 2.5932."
n-butane, no unit, Statistics=sample count
numflag n-butane, no unit, Statistics=sample count
n-butane, pmol/mol, Statistics=stddev
numflag n-butane, no unit, Statistics=stddev
n-butane, ng/m3, Statistics=stddev, Volume std. temperature=273.15 K, Volume std. pressure=1013.25 hPa, "Comment=Data converted on export from EBAS from 'pmol/mol' to 'ng/m3' at 273.15 K, 1013.25 hPa, conversion factor 2.5932."
numflag n-butane, no unit, Statistics=stddev, Volume std. temperature=273.15 K, Volume std. pressure=1013.25 hPa, "Comment=Data converted on export from EBAS from 'pmol/mol' to 'ng/m3' at 273.15 K, 1013.25 hPa, conversion factor 2.5932."
n-pentane, pmol/mol, Statistics=arithmetic mean
numflag n-pentane, no unit, Statistics=arithmetic mean
n-pentane, ng/m3, Statistics=arithmetic mean, Volume std. temperature=273.15 K, Volume std. pressure=1013.25 hPa, "Comment=Data converted on export from EBAS from 'pmol/mol' to 'ng/m3' at 273.15 K, 1013.25 hPa, conversion factor 3.2190."
numflag n-pentane, no unit, Statistics=arithmetic mean, Volume std. temperature=273.15 K, Volume std. pressure=1013.25 hPa, "Comment=Data converted on export from EBAS from 'pmol/mol' to 'ng/m3' at 273.15 K, 1013.25 hPa, conversion factor 3.2190."
n-pentane, no unit, Statistics=sample count
numflag n-pentane, no unit, Statistics=sample count
n-pentane, pmol/mol, Statistics=stddev
numflag n-pentane, no unit, Statistics=stddev
n-pentane, ng/m3, Statistics=stddev, Volume std. temperature=273.15 K, Volume std. pressure=1013.25 hPa, "Comment=Data converted on export from EBAS from 'pmol/mol' to 'ng/m3' at 273.15 K, 1013.25 hPa, conversion factor 3.2190."
numflag n-pentane, no unit, Statistics=stddev, Volume std. temperature=273.15 K, Volume std. pressure=1013.25 hPa, "Comment=Data converted on export from EBAS from 'pmol/mol' to 'ng/m3' at 273.15 K, 1013.25 hPa, conversion factor 3.2190."
propane, pmol/mol, Statistics=arithmetic mean
numflag propane, no unit, Statistics=arithmetic mean
propane, no unit, Statistics=sample count
numflag propane, no unit, Statistics=sample count
propane, pmol/mol, Statistics=stddev
numflag propane, no unit, Statistics=stddev
0
49
Data definition:              EBAS_1.1
Data license:                 "https://creativecommons.org/licenses/by/4.0/"
Citation:                     Detlev Helmig, 2-methylbutane, 2-methylpropane, ethane, n-butane, n-pentane, propane - glass_flask at Mt. Kenya, data hosted by EBAS at NILU
Set type code:                TI
Timezone:                     UTC
File name:                    KE0001G.20060224084500.20210831185838.glass_flask..air.5y.12d.US13L_glass_flask_KE0001G.US13L_GC_FID_v1.lev2.nas
File creation:                20230927135739591000
Export state:                 20230927135701973905
Export filter:                exclude-900,exclude-invalid
Startdate:                    20060224084500
Revision date:                20210831185838
Version:                      1
Version description:          initiol revision to ebas, generated with noaa_flask.py V.0.1
Data level:                   2
Period code:                  5y
Resolution code:              12d
Sample duration:              1mn
Station code:                 KE0001G
Platform code:                KE0001S
Station name:                 Mt. Kenya
Station WDCA-ID:              GAWAKE__MKN
Station GAW-ID:               MKN
Station GAW-Name:             Mt. Kenya
Station land use:             Grassland
Station setting:              Mountain
Station GAW type:             G
Station WMO region:           1
Station latitude:             -0.0622
Station longitude:            37.2972
Station altitude:             3678.0 m
Measurement latitude:         -0.0622
Measurement longitude:        37.2972
Measurement altitude:         3644.0 m
Measurement height:           5.0 m
Regime:                       IMG
Component:                    
Matrix:                       air
Laboratory code:              US13L
Instrument type:              glass_flask
Instrument name:              glass_flask_KE0001G
Analytical laboratory code:   US13L
Analytical measurement technique: GC-FID
Analytical instrument name:   GC_FID_v1
Analytical instrument manufacturer: Hewlett Packard
Analytical instrument model:  HP-5890 series II
Method ref:                   US13L_GC_FID_v1
Originator:                   Helmig, Detlev, Detlev.Helmig@colorado.edu, University of Colorado - INSTAAR, INSTAAR, Institute of Arctic and Alpine Research, 4001 Discovery Drive, , CO 80303, Boulder, USA, ORCID=0000-0003-1612-1651
Submitter:                    Mund, John, John.Mund@noaa.gov, National Oceanic and Atmospheric Administration, NOAA GML, Global Monitoring Laboratory, 325 Broadway R/GML, , 80305-3328, Boulder, USA
starttime endtime C5H12 flag_C5H12 C5H12 flag_C5H12 C5H12 flag_C5H12 C5H12 flag_C5H12 C5H12 flag_C5H12 C4H10 flag_C4H10 C4H10 flag_C4H10 C4H10 flag_C4H10 C2H6 flag_C2H6 C2H6 flag_C2H6 C2H6 flag_C2H6 C4H10 flag_C4H10 C4H10 flag_C4H10 C4H10 flag_C4H10 C4H10 flag_C4H10 C4H10 flag_C4H10 C5H12 flag_C5H12 C5H12 flag_C5H12 C5H12 flag_C5H12 C5H12 flag_C5H12 C5H12 flag_C5H12 C3H8 flag_C3H8 C3H8 flag_C3H8 C3H8 flag_C3H8
  54.364583   54.365278    15.248 0.000000     49.08 0.000000  2 0.000    5.542 0.000   17.84 0.000 99999.999 0.456499  0 0.000 999.999 0.899   607.510 0.000000  2 0.000  106.526 0.000    24.942 0.000000    64.68 0.000000  2 0.000   1.556 0.000    4.04 0.000    27.005 0.000000    86.93 0.000000  2 0.000   4.962 0.000   15.97 0.000   97.043 0.000000  2 0.000  25.760 0.000
  66.368056   66.368750    19.897 0.000000     64.05 0.000000  2 0.000    4.185 0.000   13.47 0.000 99999.999 0.499456  0 0.000 999.999 0.899    35.260 0.000000  2 0.000    5.885 0.000   105.593 0.559000   273.82 0.559000  2 0.000  25.349 0.000   65.74 0.000     2.000 0.781000     6.44 0.781000  2 0.000   0.000 0.000    0.00 0.000   75.541 0.000000  2 0.000   7.501 0.000
  78.375000   78.375694    25.159 0.000000     80.99 0.000000  2 0.000    3.747 0.000   12.06 0.000    18.013 0.000000  2 0.000   0.062 0.000 99999.999 0.499456  0 0.000 9999.999 0.899    60.635 0.000000   157.24 0.000000  2 0.000   1.081 0.000    2.80 0.000    25.594 0.000000    82.39 0.000000  2 0.000   2.947 0.000    9.49 0.000  113.592 0.000000  2 0.000  21.452 0.000
  86.481250   86.481944    24.154 0.000000     77.75 0.000000  1 0.000 9999.999 0.899 9999.99 0.899     7.688 0.000000  2 0.000   0.844 0.000   371.389 0.000000  2 0.000   11.680 0.000    15.375 0.000000    39.87 0.000000  2 0.000   6.790 0.000   17.61 0.000    16.579 0.000000    53.37 0.000000  1 0.000 999.999 0.899 9999.99 0.899   50.884 0.000000  2 0.000   5.339 0.000
  93.348611   93.349306    20.792 0.000000     66.93 0.000000  2 0.000    5.074 0.000   16.33 0.000     7.052 0.000000  2 0.000   1.952 0.000   338.778 0.000000  2 0.000    0.105 0.000    34.328 0.000000    89.02 0.000000  2 0.000   5.192 0.000   13.46 0.000    21.259 0.000000    68.43 0.000000  2 0.000   6.215 0.000   20.01 0.000   48.700 0.000000  2 0.000   1.125 0.000
 102.453472  102.454167    23.077 0.000000     74.29 0.000000  2 0.000    0.793 0.000    2.55 0.000    11.747 0.000000  2 0.000   0.388 0.000 99999.999 0.456499  0 0.000 9999.999 0.899    11.884 0.000000    30.82 0.000000  2 0.000   0.373 0.000    0.97 0.000    19.395 0.000000    62.43 0.000000  2 0.000   1.218 0.000    3.92 0.000   32.014 0.000000  2 0.000   2.420 0.000
 111.369444  111.370139     2.000 0.781000      6.44 0.781000  2 0.000    0.000 0.000    0.00 0.000     3.000 0.781000  2 0.000   0.000 0.000   128.139 0.000000  2 0.000    5.696 0.000    15.421 0.000000    39.99 0.000000  2 0.000   1.486 0.000    3.85 0.000     9.440 0.000000    30.39 0.000000  2 0.000   0.888 0.000    2.86 0.000   31.471 0.000000  2 0.000   5.312 0.000
 116.437500  116.438194     4.893 0.000000     15.75 0.000000  2 0.000    0.196 0.000    0.63 0.000     3.000 0.781000  2 0.000   0.000 0.000   132.005 0.000000  2 0.000   14.713 0.000     8.746 0.000000    22.68 0.000000  2 0.000   0.669 0.000    1.73 0.000     5.341 0.000000    17.19 0.000000  2 0.000   0.121 0.000    0.39 0.000   28.010 0.000000  2 0.000   0.846 0.000
 130.361111  130.361806    36.139 0.000000    116.33 0.000000  1 0.000 9999.999 0.899 9999.99 0.899     6.861 0.000000  1 0.000 999.999 0.899   343.994 0.000000  1 0.000 9999.999 0.899    15.460 0.000000    40.09 0.000000  1 0.000 999.999 0.899 9999.99 0.899    21.324 0.000000    68.64 0.000000  1 0.000 999.999 0.899 9999.99 0.899   32.384 0.000000  1 0.000 999.999 0.899
 134.494444  134.495139    15.160 0.000000     48.80 0.000000  2 0.000    0.082 0.000    0.26 0.000     8.524 0.000000  2 0.000   0.273 0.000   493.348 0.000000  2 0.000    3.814 0.000    17.346 0.000000    44.98 0.000000  2 0.000   6.640 0.000   17.22 0.000    18.135 0.000000    58.38 0.000000  2 0.000   0.180 0.000    0.58 0.000   60.603 0.000000  2 0.000   1.976 0.000
 202.447917  202.448611 99999.999 0.499456 999999.99 0.499456  0 0.000 9999.999 0.899 9999.99 0.899 99999.999 0.456499  0 0.000 999.999 0.899   443.220 0.000000  2 0.000    6.175 0.000    11.241 0.000000    29.15 0.000000  2 0.000   1.442 0.000    3.74 0.000    12.965 0.000000    41.73 0.000000  2 0.000   2.410 0.000    7.76 0.000   47.767 0.000000  2 0.000   0.643 0.000
 205.350694  205.351389    32.557 0.000000    104.80 0.000000  2 0.000    3.708 0.000   11.94 0.000    13.336 0.000000  2 0.000   1.649 0.000   791.492 0.000000  2 0.000   43.609 0.000    28.034 0.000000    72.70 0.000000  2 0.000   1.964 0.000    5.09 0.000    28.274 0.000000    91.01 0.000000  2 0.000   2.920 0.000    9.40 0.000   81.556 0.000000  2 0.000   5.637 0.000
 213.420139  213.420833   451.643 0.559000   1453.85 0.559000  2 0.000   27.422 0.000   88.27 0.000    27.442 0.000000  2 0.000   2.760 0.000   486.351 0.000000  2 0.000   16.761 0.000    54.430 0.000000   141.15 0.000000  2 0.000   0.461 0.000    1.20 0.000   542.592 0.559000  1746.61 0.559000  2 0.000  41.752 0.000  134.40 0.000   80.466 0.000000  2 0.000  11.508 0.000
 984.463194  984.463889 99999.999 0.499456 999999.99 0.499456  0 0.000 9999.999 0.899 9999.99 0.899    10.197 0.000000  2 0.000   2.648 0.000   533.154 0.000000  2 0.000    6.987 0.000    21.797 0.000000    56.52 0.000000  2 0.000   6.498 0.000   16.85 0.000    24.114 0.000000    77.62 0.000000  2 0.000   6.019 0.000   19.38 0.000   60.856 0.000000  2 0.000   5.103 0.000
1007.500000 1007.500694    13.460 0.000000     43.33 0.000000  2 0.000    4.161 0.000   13.39 0.000     9.640 0.000000  2 0.000   1.435 0.000   416.788 0.000000  2 0.000   27.431 0.000    10.123 0.000000    26.25 0.000000  2 0.000   1.303 0.000    3.38 0.000     6.565 0.000000    21.13 0.000000  2 0.000   1.236 0.000    3.98 0.000   40.102 0.000000  2 0.000   5.068 0.000
1018.415972 1018.416667    26.571 0.000000     85.53 0.000000  2 0.000    2.260 0.000    7.27 0.000    13.303 0.000000  2 0.000   1.624 0.000   452.379 0.000000  2 0.000    4.578 0.000    25.710 0.000000    66.67 0.000000  2 0.000   0.972 0.000    2.52 0.000    20.549 0.000000    66.15 0.000000  2 0.000   0.313 0.000    1.01 0.000   51.439 0.000000  2 0.000   1.549 0.000
1033.416667 1033.417361    28.456 0.000000     91.60 0.000000  2 0.000    2.637 0.000    8.49 0.000    15.402 0.000000  2 0.000   0.013 0.000 99999.999 0.456499  0 0.000 9999.999 0.899    29.783 0.000000    77.23 0.000000  2 0.000   1.631 0.000    4.23 0.000    19.981 0.000000    64.32 0.000000  2 0.000   3.359 0.000   10.81 0.000   58.728 0.000000  2 0.000   5.892 0.000
1037.347222 1037.347917 99999.999 0.456499 999999.99 0.456499  0 0.000 9999.999 0.899 9999.99 0.899 99999.999 0.456499  0 0.000 999.999 0.899   498.069 0.000000  2 0.000   99.503 0.000 99999.999 0.499456 99999.99 0.499456  0 0.000 999.999 0.899 9999.99 0.899 99999.999 0.499456 99999.99 0.499456  0 0.000 999.999 0.899 9999.99 0.899 9999.999 0.456499  0 0.000 999.999 0.899
1047.437500 1047.438194    25.055 0.000000     80.65 0.000000  2 0.000    1.390 0.000    4.47 0.000    14.584 0.000000  2 0.000   1.697 0.000   496.307 0.000000  2 0.000    1.797 0.000    38.711 0.000000   100.39 0.000000  2 0.000  10.527 0.000   27.30 0.000    25.805 0.000000    83.07 0.000000  2 0.000   6.087 0.000   19.59 0.000   65.341 0.000000  2 0.000   6.206 0.000
1052.354167 1052.354861    32.660 0.000000    105.13 0.000000  2 0.000    2.368 0.000    7.62 0.000    13.968 0.000000  2 0.000   2.018 0.000 99999.999 0.499456  0 0.000 9999.999 0.899    31.368 0.000000    81.34 0.000000  2 0.000   1.147 0.000    2.97 0.000    31.874 0.000000   102.60 0.000000  2 0.000   2.186 0.000    7.04 0.000   99.559 0.000000  2 0.000  11.654 0.000
1081.543750 1081.544444     2.000 0.781000      6.44 0.781000  2 0.000    0.000 0.000    0.00 0.000     3.000 0.781000  2 0.000   0.000 0.000     5.000 0.781000  2 0.000    0.000 0.000     3.000 0.781000     7.78 0.781000  2 0.000   0.000 0.000    0.00 0.000     2.000 0.781000     6.44 0.781000  2 0.000   0.000 0.000    0.00 0.000    4.000 0.781000  2 0.000   0.000 0.000
1102.402083 1102.402778    21.889 0.000000     70.46 0.000000  2 0.000    1.146 0.000    3.69 0.000     8.492 0.781000  2 0.000   7.766 0.000   690.801 0.000000  2 0.000   36.608 0.000    25.776 0.000000    66.84 0.000000  2 0.000   2.420 0.000    6.28 0.000    14.568 0.000000    46.89 0.000000  2 0.000   3.105 0.000   10.00 0.000   73.868 0.000000  2 0.000   1.812 0.000
1104.583333 1104.584028    31.913 0.000000    102.73 0.000000  2 0.000    8.661 0.000   27.88 0.000    18.478 0.000000  2 0.000   4.284 0.000   618.671 0.000000  2 0.000   60.284 0.000 99999.999 0.499456 99999.99 0.499456  0 0.000 999.999 0.899 9999.99 0.899 99999.999 0.456499 99999.99 0.456499  0 0.000 999.999 0.899 9999.99 0.899 9999.999 0.499456  0 0.000 999.999 0.899
1123.336806 1123.337500    25.377 0.000000     81.69 0.000000  2 0.000    1.248 0.000    4.02 0.000    14.704 0.000000  2 0.000   0.894 0.000   730.740 0.000000  2 0.000   28.250 0.000    37.207 0.000000    96.49 0.000000  2 0.000   0.730 0.000    1.89 0.000    18.791 0.000000    60.49 0.000000  2 0.000   4.151 0.000   13.36 0.000   86.254 0.000000  2 0.000   2.029 0.000
1139.451389 1139.452083    47.283 0.000000    152.20 0.000000  2 0.000   11.806 0.000   38.00 0.000    27.526 0.000000  2 0.000   2.361 0.000   649.854 0.000000  2 0.000   30.275 0.000    57.001 0.000000   147.82 0.000000  2 0.000  11.336 0.000   29.40 0.000    33.314 0.000000   107.24 0.000000  2 0.000   0.786 0.000    2.53 0.000   91.332 0.000000  2 0.000  12.024 0.000
1153.402778 1153.403472    20.233 0.000000     65.13 0.000000  2 0.000    1.224 0.000    3.94 0.000    10.861 0.781000  2 0.000  11.118 0.000   463.107 0.000000  2 0.000   10.693 0.000    35.224 0.000000    91.34 0.000000  2 0.000   9.269 0.000   24.04 0.000    20.507 0.000000    66.01 0.000000  2 0.000   3.973 0.000   12.79 0.000   54.300 0.000000  2 0.000   1.568 0.000
1161.402778 1161.403472    23.270 0.000000     74.91 0.000000  2 0.000    2.071 0.000    6.67 0.000    23.756 0.000000  2 0.000   4.977 0.000   565.398 0.000000  2 0.000    9.675 0.000    56.306 0.000000   146.01 0.000000  2 0.000  11.313 0.000   29.34 0.000    42.989 0.000000   138.38 0.000000  2 0.000   1.846 0.000    5.94 0.000   81.286 0.000000  2 0.000   5.548 0.000
1229.434028 1229.434722    39.032 0.000000    125.64 0.000000  1 0.000 9999.999 0.899 9999.99 0.899    16.010 0.000000  1 0.000 999.999 0.899   397.575 0.000000  1 0.000 9999.999 0.899    35.927 0.000000    93.17 0.000000  1 0.000 999.999 0.899 9999.99 0.899    49.650 0.000000   159.82 0.000000  1 0.000 999.999 0.899 9999.99 0.899   62.367 0.000000  1 0.000 999.999 0.899
1235.298611 1235.299306  1907.945 0.000000   6141.71 0.000000  2 0.000    9.313 0.000   29.98 0.000   165.939 0.000000  2 0.000   7.507 0.000   821.374 0.000000  2 0.000    1.873 0.000   523.484 0.000000  1357.50 0.000000  2 0.000  62.756 0.000  162.74 0.000  1060.224 0.000000  3412.88 0.000000  2 0.000   8.986 0.000   28.93 0.000   97.047 0.000000  2 0.000   4.129 0.000
1250.270833 1250.271528    34.368 0.000000    110.63 0.000000  2 0.000    0.105 0.000    0.34 0.000    16.774 0.000000  2 0.000   1.027 0.000   415.406 0.000000  2 0.000   47.059 0.000    42.502 0.000000   110.22 0.000000  2 0.000   1.207 0.000    3.13 0.000    37.073 0.000000   119.34 0.000000  2 0.000   7.719 0.000   24.85 0.000   92.459 0.000000  2 0.000   5.728 0.000
1265.250000 1265.250694 99999.999 0.999000 999999.99 0.999000  0 0.000 9999.999 0.899 9999.99 0.899 99999.999 0.999000  0 0.000 999.999 0.899 99999.999 0.999000  0 0.000 9999.999 0.899 99999.999 0.999000 99999.99 0.999000  0 0.000 999.999 0.899 9999.99 0.899 99999.999 0.999000 99999.99 0.999000  0 0.000 999.999 0.899 9999.99 0.899 9999.999 0.999000  0 0.000 999.999 0.899
1271.270833 1271.271528    33.910 0.000000    109.16 0.000000  2 0.000    1.476 0.000    4.75 0.000    18.539 0.000000  2 0.000   0.967 0.000   385.259 0.000000  2 0.000   18.270 0.000    39.794 0.000000   103.19 0.000000  2 0.000   0.937 0.000    2.43 0.000    24.658 0.000000    79.37 0.000000  2 0.000   1.813 0.000    5.84 0.000  116.915 0.000000  2 0.000   1.544 0.000
1283.354167 1283.354861    51.075 0.000000    164.41 0.000000  2 0.000    1.145 0.000    3.69 0.000    22.846 0.000000  2 0.000   5.406 0.000   449.175 0.000000  2 0.000   10.868 0.000    45.367 0.000000   117.65 0.000000  2 0.000   1.985 0.000    5.15 0.000    30.230 0.000000    97.31 0.000000  2 0.000   1.433 0.000    4.61 0.000  129.692 0.000000  2 0.000   1.883 0.000
1290.312500 1290.313194    54.197 0.000000    174.46 0.000000  2 0.000    6.286 0.000   20.23 0.000    28.028 0.000000  2 0.000   0.042 0.000   641.543 0.000000  2 0.000   31.742 0.000    46.739 0.000000   121.20 0.000000  2 0.000   2.077 0.000    5.39 0.000    40.246 0.000000   129.55 0.000000  2 0.000   2.965 0.000    9.54 0.000   98.764 0.000000  2 0.000   1.312 0.000
1304.250000 1304.250694    73.126 0.000000    235.39 0.000000  2 0.000   10.835 0.000   34.88 0.000    19.194 0.000000  2 0.000   0.030 0.000   526.555 0.000000  2 0.000   59.458 0.000    40.558 0.000000   105.18 0.000000  2 0.000   1.780 0.000    4.62 0.000    58.225 0.000000   187.43 0.000000  2 0.000  10.026 0.000   32.27 0.000   68.784 0.000000  2 0.000   4.737 0.000
1312.375000 1312.375694    56.397 0.000000    181.54 0.000000  2 0.000    4.683 0.000   15.07 0.000    19.955 0.000000  2 0.000   1.564 0.000   524.885 0.000000  2 0.000   76.135 0.000    55.664 0.000000   144.35 0.000000  2 0.000   3.718 0.000    9.64 0.000    42.779 0.000000   137.71 0.000000  2 0.000   2.709 0.000    8.72 0.000   75.881 0.000000  2 0.000   1.938 0.000
1322.301389 1322.302083 99999.999 0.456499 999999.99 0.456499  0 0.000 9999.999 0.899 9999.99 0.899    21.852 0.000000  2 0.000   0.296 0.000   559.951 0.000000  2 0.000   95.821 0.000    52.147 0.000000   135.23 0.000000  2 0.000   9.806 0.000   25.43 0.000    48.103 0.000000   154.84 0.000000  2 0.000   7.676 0.000   24.71 0.000   87.733 0.000000  2 0.000   9.987 0.000
1334.375000 1334.375694    77.635 0.000000    249.91 0.000000  2 0.000   10.812 0.000   34.80 0.000    21.880 0.000000  2 0.000   1.535 0.000   537.014 0.000000  2 0.000  104.350 0.000    57.000 0.000000   147.81 0.000000  2 0.000   2.688 0.000    6.97 0.000    52.264 0.000000   168.24 0.000000  2 0.000   1.105 0.000    3.56 0.000   87.358 0.000000  2 0.000   3.324 0.000
1341.434028 1341.434722    33.343 0.000000    107.33 0.000000  2 0.000    7.016 0.000   22.58 0.000    16.554 0.000000  2 0.000   0.240 0.000   735.607 0.000000  2 0.000   27.666 0.000 99999.999 0.456499 99999.99 0.456499  0 0.000 999.999 0.899 9999.99 0.899    22.663 0.000000    72.95 0.000000  2 0.000   1.524 0.000    4.91 0.000  124.512 0.000000  2 0.000  17.011 0.000
1354.270833 1354.271528    28.833 0.000000     92.81 0.000000  2 0.000    0.755 0.000    2.43 0.000    10.957 0.000000  2 0.000   1.692 0.000   540.874 0.000000  2 0.000   64.137 0.000    30.343 0.000000    78.69 0.000000  2 0.000   3.306 0.000    8.57 0.000    27.979 0.000000    90.06 0.000000  2 0.000   3.458 0.000   11.13 0.000 9999.999 0.499456  0 0.000 999.999 0.899
1361.333333 1361.334028    47.147 0.000000    151.77 0.000000  2 0.000    1.828 0.000    5.88 0.000    14.322 0.000000  2 0.000   0.384 0.000   426.808 0.000000  2 0.000    3.879 0.000    39.391 0.000000   102.15 0.000000  2 0.000   1.313 0.000    3.40 0.000    36.235 0.000000   116.64 0.000000  2 0.000   7.534 0.000   24.25 0.000   56.769 0.000000  2 0.000   6.783 0.000
1374.282639 1374.283333    29.739 0.000000     95.73 0.000000  2 0.000    6.408 0.000   20.63 0.000    14.263 0.000000  2 0.000   3.944 0.000   586.663 0.000000  2 0.000   84.613 0.000    27.319 0.000000    70.84 0.000000  2 0.000   0.008 0.000    0.02 0.000    31.056 0.000000    99.97 0.000000  2 0.000   3.917 0.000   12.61 0.000   75.275 0.000000  2 0.000   1.667 0.000
1382.271528 1382.272222    61.181 0.000000    196.94 0.000000  2 0.000   11.659 0.000   37.53 0.000    13.822 0.000000  2 0.000   1.490 0.000   427.361 0.000000  2 0.000   30.833 0.000    41.462 0.000000   107.52 0.000000  2 0.000   1.135 0.000    2.94 0.000    41.313 0.000000   132.99 0.000000  2 0.000   6.662 0.000   21.45 0.000   40.880 0.000000  2 0.000   6.059 0.000
1395.406250 1395.406944    23.307 0.000000     75.03 0.000000  2 0.000    3.069 0.000    9.88 0.000     6.348 0.000000  2 0.000   1.228 0.000   275.761 0.000000  2 0.000    6.678 0.000    14.755 0.000000    38.26 0.000000  2 0.000   4.798 0.000   12.44 0.000    19.603 0.000000    63.10 0.000000  2 0.000   3.489 0.000   11.23 0.000   26.160 0.000000  2 0.000   0.749 0.000
1404.395833 1404.396528    26.268 0.000000     84.56 0.000000  2 0.000    4.714 0.000   15.17 0.000    10.308 0.000000  2 0.000   1.475 0.000   469.511 0.000000  2 0.000   66.296 0.000 99999.999 0.456499 99999.99 0.456499  0 0.000 999.999 0.899 9999.99 0.899    28.690 0.000000    92.35 0.000000  2 0.000   1.626 0.000    5.23 0.000   42.629 0.000000  2 0.000   7.275 0.000
1409.340278 1409.340972    33.550 0.000000    108.00 0.000000  2 0.000    7.024 0.000   22.61 0.000    18.280 0.000000  2 0.000   1.406 0.000   525.036 0.000000  2 0.000    9.752 0.000    49.016 0.000000   127.11 0.000000  2 0.000   8.238 0.000   21.36 0.000    31.038 0.000000    99.91 0.000000  2 0.000   3.968 0.000   12.77 0.000   55.572 0.000000  2 0.000   1.217 0.000
1424.284722 1424.285417 99999.999 0.999000 999999.99 0.999000  0 0.000 9999.999 0.899 9999.99 0.899 99999.999 0.999000  0 0.000 999.999 0.899 99999.999 0.999000  0 0.000 9999.999 0.899 99999.999 0.999000 99999.99 0.999000  0 0.000 999.999 0.899 9999.99 0.899 99999.999 0.999000 99999.99 0.999000  0 0.000 999.999 0.899 9999.99 0.899 9999.999 0.999000  0 0.000 999.999 0.899
1444.239583 1444.240278     2.000 0.781000      6.44 0.781000  2 0.000    0.000 0.000    0.00 0.000     3.000 0.781000  2 0.000   0.000 0.000     5.000 0.781000  2 0.000    0.000 0.000     3.000 0.781000     7.78 0.781000  2 0.000   0.000 0.000    0.00 0.000     2.000 0.781000     6.44 0.781000  2 0.000   0.000 0.000    0.00 0.000    4.000 0.781000  2 0.000   0.000 0.000
1458.524259 1458.524954   106.551 0.000000    342.99 0.000000  2 0.000    6.384 0.000   20.55 0.000    26.244 0.000000  2 0.000   1.515 0.000   442.798 0.000000  2 0.000   58.138 0.000    59.427 0.000000   154.11 0.000000  2 0.000   1.063 0.000    2.76 0.000    80.874 0.000000   260.33 0.000000  2 0.000   5.588 0.000   17.99 0.000   49.678 0.000000  2 0.000  10.951 0.000
1467.386806 1467.387500 99999.999 0.499456 999999.99 0.499456  0 0.000 9999.999 0.899 9999.99 0.899    18.464 0.000000  2 0.000   2.882 0.000   849.983 0.000000  2 0.000    4.897 0.000    48.593 0.000000   126.01 0.000000  2 0.000  13.250 0.000   34.36 0.000 99999.999 0.456499 99999.99 0.456499  0 0.000 999.999 0.899 9999.99 0.899  105.514 0.000000  2 0.000  17.077 0.000
1483.253472 1483.254167   103.921 0.000000    334.52 0.000000  2 0.000   18.516 0.000   59.60 0.000    24.538 0.000000  2 0.000   3.674 0.000   521.768 0.000000  2 0.000    2.533 0.000    69.332 0.000000   179.79 0.000000  2 0.000   5.733 0.000   14.87 0.000    63.661 0.000000   204.93 0.000000  2 0.000   6.937 0.000   22.33 0.000   43.102 0.000000  2 0.000   5.949 0.000
1495.333333 1495.334028 99999.999 0.499456 999999.99 0.499456  0 0.000 9999.999 0.899 9999.99 0.899    27.617 0.000000  2 0.000   2.916 0.000   685.667 0.000000  2 0.000   11.679 0.000    53.544 0.000000   138.85 0.000000  2 0.000   6.062 0.000   15.72 0.000 99999.999 0.456499 99999.99 0.456499  0 0.000 999.999 0.899 9999.99 0.899   90.719 0.000000  2 0.000   0.313 0.000
1509.180556 1509.181250 99999.999 0.499456 999999.99 0.499456  0 0.000 9999.999 0.899 9999.99 0.899    33.730 0.000000  2 0.000   8.463 0.000   888.998 0.000000  2 0.000   18.646 0.000 99999.999 0.499456 99999.99 0.499456  0 0.000 999.999 0.899 9999.99 0.899 99999.999 0.499456 99999.99 0.499456  0 0.000 999.999 0.899 9999.99 0.899  109.132 0.000000  2 0.000   5.346 0.000
1515.344444 1515.345139    19.898 0.000000     64.05 0.000000  2 0.000    6.440 0.000   20.73 0.000    23.020 0.000000  2 0.000   4.130 0.000 99999.999 0.499456  0 0.000 9999.999 0.899 99999.999 0.499456 99999.99 0.499456  0 0.000 999.999 0.899 9999.99 0.899    21.736 0.000000    69.97 0.000000  2 0.000   5.962 0.000   19.19 0.000 9999.999 0.499456  0 0.000 999.999 0.899
1522.312500 1522.313194     8.400 0.000000     27.04 0.000000  1 0.000 9999.999 0.899 9999.99 0.899    11.601 0.000000  1 0.000 999.999 0.899   389.366 0.000000  1 0.000 9999.999 0.899    22.662 0.000000    58.77 0.000000  1 0.000 999.999 0.899 9999.99 0.899    18.589 0.000000    59.84 0.000000  1 0.000 999.999 0.899 9999.99 0.899   31.835 0.000000  1 0.000 999.999 0.899
1530.375000 1530.375694 99999.999 0.456499 999999.99 0.456499  0 0.000 9999.999 0.899 9999.99 0.899 99999.999 0.456499  0 0.000 999.999 0.899   708.857 0.000000  2 0.000   17.854 0.000 99999.999 0.499456 99999.99 0.499456  0 0.000 999.999 0.899 9999.99 0.899 99999.999 0.456499 99999.99 0.456499  0 0.000 999.999 0.899 9999.99 0.899   92.274 0.000000  2 0.000  12.655 0.000
1546.395833 1546.396528    18.854 0.000000     60.69 0.000000  2 0.000    0.425 0.000    1.37 0.000    17.523 0.000000  2 0.000   2.048 0.000   537.557 0.000000  2 0.000    2.399 0.000    27.866 0.000000    72.26 0.000000  2 0.000   1.436 0.000    3.72 0.000    19.877 0.000000    63.98 0.000000  2 0.000   1.225 0.000    3.94 0.000   48.329 0.000000  2 0.000   8.719 0.000
1573.250000 1573.250694    46.416 0.000000    149.41 0.000000  2 0.000    4.555 0.000   14.66 0.000    24.425 0.000000  2 0.000   4.093 0.000   338.467 0.000000  2 0.000   10.054 0.000    45.644 0.000000   118.36 0.000000  2 0.000   1.025 0.000    2.66 0.000    32.442 0.000000   104.43 0.000000  2 0.000   2.925 0.000    9.42 0.000   46.697 0.000000  2 0.000   3.903 0.000
1578.312500 1578.313194     9.837 0.000000     31.67 0.000000  1 0.000 9999.999 0.899 9999.99 0.899     9.007 0.000000  1 0.000 999.999 0.899   280.792 0.000000  1 0.000 9999.999 0.899    20.980 0.000000    54.41 0.000000  1 0.000 999.999 0.899 9999.99 0.899    19.512 0.000000    62.81 0.000000  1 0.000 999.999 0.899 9999.99 0.899   17.791 0.000000  1 0.000 999.999 0.899
1584.298611 1584.299306 99999.999 0.499456 999999.99 0.499456  0 0.000 9999.999 0.899 9999.99 0.899 99999.999 0.456499  0 0.000 999.999 0.899 99999.999 0.456499  0 0.000 9999.999 0.899 99999.999 0.499456 99999.99 0.499456  0 0.000 999.999 0.899 9999.99 0.899 99999.999 0.456499 99999.99 0.456499  0 0.000 999.999 0.899 9999.99 0.899 9999.999 0.499456  0 0.000 999.999 0.899
1600.312500 1600.313194    19.919 0.000000     64.12 0.000000  2 0.000    2.970 0.000    9.56 0.000    22.188 0.000000  2 0.000   4.060 0.000   518.869 0.000000  2 0.000   10.047 0.000    45.630 0.000000   118.33 0.000000  2 0.000   6.345 0.000   16.45 0.000    24.499 0.000000    78.86 0.000000  2 0.000   2.683 0.000    8.64 0.000  111.900 0.000000  2 0.000   0.038 0.000
1630.354167 1630.354861    29.635 0.000000     95.40 0.000000  2 0.000    4.327 0.000   13.93 0.000 99999.999 0.499456  0 0.000 999.999 0.899   774.024 0.000000  2 0.000   15.775 0.000 99999.999 0.456499 99999.99 0.456499  0 0.000 999.999 0.899 9999.99 0.899    28.664 0.000000    92.27 0.000000  2 0.000   1.452 0.000    4.67 0.000  115.379 0.000000  2 0.000  18.228 0.000
1632.445139 1632.445833    29.544 0.000000     95.10 0.000000  2 0.000    6.988 0.000   22.49 0.000 99999.999 0.456499  0 0.000 999.999 0.899   672.931 0.000000  2 0.000   98.147 0.000    45.739 0.000000   118.61 0.000000  2 0.000  11.487 0.000   29.79 0.000    31.273 0.000000   100.67 0.000000  2 0.000   0.241 0.000    0.78 0.000   94.521 0.000000  2 0.000   9.861 0.000
1690.333333 1690.334028    61.200 0.000000    197.00 0.000000  2 0.000    2.464 0.000    7.93 0.000    25.805 0.000000  2 0.000   0.804 0.000  1028.022 0.000000  2 0.000    3.206 0.000    64.338 0.000000   166.84 0.000000  2 0.000   3.664 0.000    9.50 0.000    72.313 0.000000   232.78 0.000000  2 0.000   5.955 0.000   19.17 0.000  118.792 0.000000  2 0.000   5.330 0.000
1705.510417 1705.511111  4064.415 0.000000  13083.43 0.000000  1 0.000 9999.999 0.899 9999.99 0.899  1377.328 0.000000  1 0.000 999.999 0.899   775.311 0.000000  1 0.000 9999.999 0.899  2202.075 0.000000  5710.43 0.000000  1 0.000 999.999 0.899 9999.99 0.899  2032.111 0.000000  6541.40 0.000000  1 0.000 999.999 0.899 9999.99 0.899  290.795 0.000000  1 0.000 999.999 0.899
1711.489583 1711.490278   184.174 0.000000    592.86 0.000000  1 0.000 9999.999 0.899 9999.99 0.899    50.510 0.000000  1 0.000 999.999 0.899   714.333 0.000000  1 0.000 9999.999 0.899   108.252 0.000000   280.72 0.000000  1 0.000 999.999 0.899 9999.99 0.899   138.022 0.000000   444.30 0.000000  1 0.000 999.999 0.899 9999.99 0.899   79.992 0.000000  1 0.000 999.999 0.899
1725.461806 1725.462500    46.703 0.000000    150.34 0.000000  2 0.000    6.604 0.000   21.26 0.000    16.282 0.000000  2 0.000   0.917 0.000   581.950 0.000000  2 0.000   19.666 0.000    41.127 0.000000   106.65 0.000000  2 0.000   0.227 0.000    0.59 0.000    54.663 0.000000   175.96 0.000000  2 0.000   8.175 0.000   26.32 0.000   67.867 0.000000  2 0.000   9.709 0.000
1731.368056 1731.368750    52.689 0.000000    169.61 0.000000  2 0.000   10.573 0.000   34.03 0.000    24.923 0.000000  2 0.000   2.916 0.000   682.827 0.000000  2 0.000   16.806 0.000    62.066 0.000000   160.95 0.000000  2 0.000   2.756 0.000    7.15 0.000    73.426 0.000000   236.36 0.000000  2 0.000   5.322 0.000   17.13 0.000   90.248 0.000000  2 0.000   1.584 0.000
1740.329861 1740.330556    45.623 0.000000    146.86 0.000000  2 0.000    1.795 0.000    5.78 0.000    21.129 0.000000  2 0.000   2.685 0.000   569.628 0.000000  2 0.000    3.606 0.000    40.221 0.000000   104.30 0.000000  2 0.000   1.170 0.000    3.03 0.000    53.319 0.000000   171.63 0.000000  2 0.000   5.792 0.000   18.64 0.000   55.994 0.000000  2 0.000   3.784 0.000
1746.347222 1746.347917    58.938 0.000000    189.72 0.000000  2 0.000    3.456 0.000   11.12 0.000    25.832 0.000000  2 0.000   0.590 0.000   516.477 0.000000  2 0.000    8.250 0.000    45.653 0.000000   118.39 0.000000  2 0.000   1.112 0.000    2.88 0.000    58.355 0.000000   187.85 0.000000  2 0.000   2.402 0.000    7.73 0.000   67.928 0.000000  2 0.000   8.898 0.000
1762.375000 1762.375694 99999.999 0.499456 999999.99 0.499456  0 0.000 9999.999 0.899 9999.99 0.899 99999.999 0.456499  0 0.000 999.999 0.899   575.866 0.000000  2 0.000   21.104 0.000 99999.999 0.499456 99999.99 0.499456  0 0.000 999.999 0.899 9999.99 0.899 99999.999 0.456499 99999.99 0.456499  0 0.000 999.999 0.899 9999.99 0.899 9999.999 0.456499  0 0.000 999.999 0.899
1769.055556 1769.056250 99999.999 0.499456 999999.99 0.499456  0 0.000 9999.999 0.899 9999.99 0.899    15.779 0.000000  2 0.000   2.199 0.000   436.745 0.000000  2 0.000   17.206 0.000    32.433 0.000000    84.11 0.000000  2 0.000   2.823 0.000    7.32 0.000    52.075 0.000000   167.63 0.000000  2 0.000  14.079 0.000   45.32 0.000   39.178 0.000000  2 0.000   1.335 0.000
1773.422917 1773.423611    59.407 0.000000    191.23 0.000000  2 0.000   13.926 0.000   44.83 0.000    21.764 0.000000  2 0.000   6.447 0.000   553.143 0.000000  2 0.000    9.649 0.000    30.440 0.000000    78.94 0.000000  2 0.000   6.029 0.000   15.63 0.000    43.850 0.000000   141.15 0.000000  2 0.000   2.723 0.000    8.77 0.000   54.785 0.000000  2 0.000   0.558 0.000
1782.388889 1782.389583 99999.999 0.456499 999999.99 0.456499  0 0.000 9999.999 0.899 9999.99 0.899 99999.999 0.456499  0 0.000 999.999 0.899   578.887 0.000000  2 0.000   69.237 0.000 99999.999 0.456499 99999.99 0.456499  0 0.000 999.999 0.899 9999.99 0.899 99999.999 0.456499 99999.99 0.456499  0 0.000 999.999 0.899 9999.99 0.899   84.278 0.000000  2 0.000   8.407 0.000
1797.388889 1797.389583   188.578 0.000000    607.04 0.000000  2 0.000   24.720 0.000   79.57 0.000    73.038 0.000000  2 0.000   8.390 0.000   699.702 0.000000  2 0.000   14.429 0.000    98.613 0.000000   255.72 0.000000  2 0.000  13.535 0.000   35.10 0.000    80.294 0.000000   258.47 0.000000  2 0.000  11.321 0.000   36.44 0.000 9999.999 0.499456  0 0.000 999.999 0.899
1816.388889 1816.389583   308.776 0.000000    993.96 0.000000  1 0.000 9999.999 0.899 9999.99 0.899   161.931 0.000000  1 0.000 999.999 0.899   800.044 0.000000  1 0.000 9999.999 0.899   302.109 0.000000   783.43 0.000000  1 0.000 999.999 0.899 9999.99 0.899   211.533 0.000000   680.93 0.000000  1 0.000 999.999 0.899 9999.99 0.899  153.409 0.000000  1 0.000 999.999 0.899
1839.375000 1839.375694    75.589 0.000000    243.32 0.000000  2 0.000    2.485 0.000    8.00 0.000     4.244 0.000000  2 0.000   1.378 0.000   704.917 0.000000  2 0.000    3.182 0.000    18.863 0.000000    48.92 0.000000  2 0.000   2.786 0.000    7.22 0.000    67.884 0.000000   218.52 0.000000  2 0.000   1.612 0.000    5.19 0.000   31.313 0.000000  2 0.000   1.398 0.000
1887.388889 1887.389583    28.218 0.000000     90.83 0.000000  2 0.000    4.992 0.000   16.07 0.000    13.117 0.000000  2 0.000   0.642 0.000   567.601 0.000000  2 0.000    0.194 0.000    34.107 0.000000    88.45 0.000000  2 0.000   0.371 0.000    0.96 0.000    23.227 0.000000    74.77 0.000000  2 0.000   1.776 0.000    5.72 0.000   51.389 0.000000  2 0.000   1.403 0.000
1903.340278 1903.340972    34.056 0.000000    109.63 0.000000  2 0.000    7.475 0.000   24.06 0.000     9.879 0.000000  2 0.000   2.311 0.000   443.310 0.000000  2 0.000    3.620 0.000    28.878 0.000000    74.89 0.000000  2 0.000   2.168 0.000    5.62 0.000    24.081 0.000000    77.52 0.000000  2 0.000   6.911 0.000   22.25 0.000   35.774 0.000000  2 0.000   2.127 0.000
1921.385417 1921.386111  2568.979 0.000000   8269.59 0.000000  2 0.000   31.914 0.000  102.73 0.000   105.987 0.000000  2 0.000   8.774 0.000  1075.464 0.000000  2 0.000   84.365 0.000   589.625 0.000000  1529.02 0.000000  2 0.000  37.443 0.000   97.10 0.000  1337.339 0.000000  4304.92 0.000000  2 0.000  26.002 0.000   83.70 0.000  111.690 0.000000  2 0.000   3.714 0.000
1943.364583 1943.365278    23.584 0.000000     75.92 0.000000  2 0.000    1.177 0.000    3.79 0.000    11.898 0.000000  2 0.000   2.512 0.000   353.101 0.000000  2 0.000    6.978 0.000    30.041 0.000000    77.90 0.000000  2 0.000   2.736 0.000    7.10 0.000    18.542 0.000000    59.69 0.000000  2 0.000   0.855 0.000    2.75 0.000   36.746 0.000000  2 0.000   2.874 0.000
1951.403472 1951.404167  1085.648 0.000000   3494.72 0.000000  2 0.000  115.304 0.000  371.17 0.000    49.722 0.000000  2 0.000   5.607 0.000   786.333 0.000000  2 0.000   32.012 0.000   173.824 0.000000   450.76 0.000000  2 0.000  13.436 0.000   34.84 0.000   575.728 0.000000  1853.28 0.000000  2 0.000  66.921 0.000  215.42 0.000   98.510 0.000000  2 0.000   9.179 0.000
1957.524259 1957.524954    52.765 0.000000    169.85 0.000000  2 0.000    1.478 0.000    4.76 0.000    20.328 0.000000  2 0.000   0.532 0.000   393.490 0.000000  2 0.000    8.989 0.000    46.811 0.000000   121.39 0.000000  2 0.000   2.075 0.000    5.38 0.000    38.335 0.000000   123.40 0.000000  2 0.000   0.240 0.000    0.77 0.000   53.433 0.000000  2 0.000   2.238 0.000
1973.354167 1973.354861    51.925 0.000000    167.15 0.000000  2 0.000    3.009 0.000    9.69 0.000    17.815 0.000000  2 0.000   5.675 0.000   545.107 0.000000  2 0.000    7.593 0.000    52.619 0.000000   136.45 0.000000  2 0.000   3.889 0.000   10.08 0.000    39.590 0.000000   127.44 0.000000  2 0.000   5.204 0.000   16.75 0.000   68.000 0.000000  2 0.000   7.362 0.000
1985.333333 1985.334028    61.460 0.000000    197.84 0.000000  2 0.000    2.092 0.000    6.73 0.000    26.550 0.000000  2 0.000   1.301 0.000   719.053 0.000000  2 0.000    0.042 0.000    53.387 0.000000   138.44 0.000000  2 0.000   2.147 0.000    5.57 0.000    45.573 0.000000   146.70 0.000000  2 0.000   6.032 0.000   19.42 0.000   99.802 0.000000  2 0.000   6.218 0.000
1997.333333 1997.334028    94.183 0.000000    303.18 0.000000  2 0.000   14.761 0.000   47.52 0.000    29.726 0.000000  2 0.000   0.405 0.000   632.139 0.000000  2 0.000    3.611 0.000    63.409 0.000000   164.43 0.000000  2 0.000   3.292 0.000    8.54 0.000    60.325 0.000000   194.19 0.000000  2 0.000   6.377 0.000   20.53 0.000  103.734 0.000000  2 0.000   0.771 0.000
